v 0.425445 0.050000 -0.014403
v 0.409912 0.050000 -0.007845
v 0.373026 0.050000 0.002006
v 0.265550 0.050000 0.003636
v 0.214482 0.050000 -0.011583
v 0.163090 0.050000 -0.047727
v 0.127877 0.050000 -0.099707
v 0.118981 0.050000 -0.124041
v 0.110085 0.050000 -0.178781
v 0.113465 0.050000 -0.240010
v 0.120133 0.050000 -0.268313
v 0.143471 0.050000 -0.318801
v 0.160141 0.050000 -0.340986
v 0.179976 0.050000 -0.360966
v 0.207695 0.050000 -0.381577
v 0.238668 0.050000 -0.396639
v 0.294553 0.050000 -0.410069
v 0.357153 0.050000 -0.410697
v 0.396263 0.050000 -0.405096
v 0.425445 0.050000 -0.308952
v 0.411576 0.050000 -0.316373
v 0.281276 0.050000 -0.324273
v 0.266544 0.050000 -0.317299
v 0.227607 0.050000 -0.281403
v 0.211812 0.050000 -0.246882
v 0.209384 0.050000 -0.163094
v 0.238719 0.050000 -0.106416
v 0.277535 0.050000 -0.080450
v 0.292996 0.050000 -0.075606
v 0.354040 0.050000 -0.073238
v 0.378848 0.050000 -0.078226
v 0.404099 0.050000 -0.086745
v 0.043067 0.050000 -0.404970
v 0.043067 0.050000 0.000000
v -0.048150 0.050000 0.000000
v -0.048150 0.050000 -0.404970
v -0.312200 0.050000 -0.139509
v -0.312200 0.050000 0.000000
v -0.403417 0.050000 0.000000
v -0.403417 0.050000 -0.404970
v -0.175484 0.050000 -0.390630
v -0.159540 0.050000 -0.382564
v -0.145722 0.050000 -0.372705
v -0.117022 0.050000 -0.332374
v -0.108518 0.050000 -0.296524
v -0.112335 0.050000 -0.237833
v -0.144356 0.050000 -0.183655
v -0.158894 0.050000 -0.171188
v -0.260307 0.050000 -0.209434
v -0.214064 0.050000 -0.232878
v -0.203544 0.050000 -0.266101
v -0.204419 0.050000 -0.286781
v -0.230938 0.050000 -0.325787
v 0.409912 -0.050000 -0.007845
v 0.294402 -0.050000 0.006680
v 0.214482 -0.050000 -0.011583
v 0.163090 -0.050000 -0.047727
v 0.142944 -0.050000 -0.071981
v 0.127877 -0.050000 -0.099707
v 0.118981 -0.050000 -0.124041
v 0.113051 -0.050000 -0.150399
v 0.110085 -0.050000 -0.178781
v 0.110132 -0.050000 -0.209667
v 0.113465 -0.050000 -0.240010
v 0.130135 -0.050000 -0.294577
v 0.143471 -0.050000 -0.318801
v 0.160141 -0.050000 -0.340986
v 0.179976 -0.050000 -0.360966
v 0.265619 -0.050000 -0.405033
v 0.331325 -0.050000 -0.411850
v 0.406333 -0.050000 -0.402982
v 0.425445 -0.050000 -0.396781
v 0.389775 -0.050000 -0.325165
v 0.366202 -0.050000 -0.330541
v 0.227541 -0.050000 -0.281444
v 0.211812 -0.050000 -0.246882
v 0.206577 -0.050000 -0.180590
v 0.211469 -0.050000 -0.155418
v 0.220377 -0.050000 -0.132236
v 0.233497 -0.050000 -0.112587
v 0.260501 -0.050000 -0.088761
v 0.277535 -0.050000 -0.080450
v 0.292996 -0.050000 -0.075606
v 0.317143 -0.050000 -0.071925
v 0.354050 -0.050000 -0.073155
v 0.386991 -0.050000 -0.080473
v 0.410415 -0.050000 -0.089774
v 0.043067 -0.050000 0.000000
v -0.048150 -0.050000 0.000000
v -0.048150 -0.050000 -0.404970
v -0.312200 -0.050000 -0.139509
v -0.312200 -0.050000 0.000000
v -0.236072 -0.050000 -0.404074
v -0.193554 -0.050000 -0.396904
v -0.145722 -0.050000 -0.372705
v -0.124463 -0.050000 -0.347611
v -0.117022 -0.050000 -0.332374
v -0.108518 -0.050000 -0.296524
v -0.193088 -0.050000 -0.152337
v -0.312200 -0.050000 -0.334934
v -0.247812 -0.050000 -0.211660
v -0.218152 -0.050000 -0.227868
v -0.204419 -0.050000 -0.257936
v -0.403417 -0.050000 0.000000
v -0.403417 -0.050000 -0.404970
v -0.236072 0.050000 -0.404074
v -0.213750 -0.050000 -0.401385
v -0.213750 0.050000 -0.401385
v -0.193554 0.050000 -0.396904
v -0.175484 -0.050000 -0.390630
v -0.159540 -0.050000 -0.382564
v -0.134029 -0.050000 -0.361054
v -0.134029 0.050000 -0.361054
v -0.124463 0.050000 -0.347611
v -0.111707 -0.050000 -0.315346
v -0.111707 0.050000 -0.315346
v -0.107456 -0.050000 -0.275911
v -0.107456 0.050000 -0.275911
v -0.108675 -0.050000 -0.256225
v -0.108675 0.050000 -0.256225
v -0.112335 -0.050000 -0.237833
v -0.119857 -0.050000 -0.217292
v -0.120562 0.050000 -0.215861
v -0.132157 -0.050000 -0.197517
v -0.132157 0.050000 -0.197517
v -0.144356 -0.050000 -0.183655
v -0.158894 -0.050000 -0.171188
v -0.175171 -0.050000 -0.160716
v -0.175171 0.050000 -0.160716
v -0.193088 0.050000 -0.152337
v -0.212645 -0.050000 -0.146054
v -0.212645 0.050000 -0.146054
v -0.233841 -0.050000 -0.141865
v -0.233841 0.050000 -0.141865
v -0.267308 0.050000 -0.334770
v -0.312200 0.050000 -0.334934
v -0.312200 -0.050000 -0.208698
v -0.312200 0.050000 -0.208698
v -0.267309 -0.050000 -0.208866
v -0.240373 0.050000 -0.213862
v -0.230947 -0.050000 -0.218047
v -0.225214 0.050000 -0.221657
v -0.209322 -0.050000 -0.241128
v -0.206835 0.050000 -0.247600
v -0.203552 -0.050000 -0.278877
v -0.206833 -0.050000 -0.296886
v -0.209318 0.050000 -0.303211
v -0.214056 -0.050000 -0.311278
v -0.218142 0.050000 -0.316177
v -0.225202 -0.050000 -0.322254
v -0.240365 -0.050000 -0.329881
v -0.247807 0.050000 -0.332036
v -0.260304 -0.050000 -0.334214
v 0.043067 -0.050000 -0.404970
v 0.425445 -0.050000 -0.097713
v 0.425445 0.050000 -0.097713
v 0.425445 -0.050000 -0.014403
v 0.368163 -0.050000 0.002948
v 0.341558 0.050000 0.006049
v 0.332721 -0.050000 0.006464
v 0.294402 0.050000 0.006680
v 0.265550 -0.050000 0.003636
v 0.238910 -0.050000 -0.002451
v 0.238910 0.050000 -0.002451
v 0.186883 -0.050000 -0.027053
v 0.186951 0.050000 -0.027153
v 0.143040 0.050000 -0.072046
v 0.113051 0.050000 -0.150399
v 0.110132 0.050000 -0.209667
v 0.120133 -0.050000 -0.268313
v 0.130135 0.050000 -0.294577
v 0.207629 -0.050000 -0.381683
v 0.238668 -0.050000 -0.396639
v 0.265619 0.050000 -0.405033
v 0.294553 -0.050000 -0.410069
v 0.325473 0.050000 -0.411748
v 0.361711 -0.050000 -0.410245
v 0.425371 0.050000 -0.397088
v 0.425329 -0.050000 -0.309442
v 0.389754 0.050000 -0.325040
v 0.366202 0.050000 -0.330541
v 0.332816 -0.050000 -0.333239
v 0.332816 0.050000 -0.333239
v 0.305075 -0.050000 -0.331055
v 0.314412 0.050000 -0.332243
v 0.297232 0.050000 -0.329254
v 0.281276 -0.050000 -0.324273
v 0.266544 -0.050000 -0.317299
v 0.253036 -0.050000 -0.308333
v 0.253036 0.050000 -0.308333
v 0.240751 -0.050000 -0.297374
v 0.240751 0.050000 -0.297374
v 0.217649 -0.050000 -0.263073
v 0.217649 0.050000 -0.263073
v 0.206380 -0.050000 -0.219073
v 0.206744 0.050000 -0.222409
v 0.205962 0.050000 -0.190602
v 0.216976 0.050000 -0.139816
v 0.224319 0.050000 -0.125538
v 0.244440 -0.050000 -0.101038
v 0.259327 0.050000 -0.089492
v 0.317297 0.050000 -0.071753
vn -0.0000 1.0000 0.0000
vn -0.0000 -1.0000 0.0000
vn 0.4508 -0.5570 0.6975
vn 0.5131 -0.0038 0.8583
vn -0.4204 -0.0013 0.9074
vn 1.0000 0.0000 0.0000
vn 0.0000 0.0000 1.0000
vn -1.0000 0.0000 0.0000
vn -0.0592 -0.0002 0.9982
vn -0.0132 0.0024 0.9999
vn -0.1131 0.0043 0.9936
vn 0.1683 0.0000 -0.9857
vn 0.0626 0.0000 -0.9980
vn 0.2728 0.0000 -0.9621
vn 0.3906 0.0000 -0.9206
vn 0.5176 0.0000 -0.8556
vn 0.6455 0.0000 -0.7638
vn 0.7630 0.0000 -0.6464
vn 0.8596 0.0000 -0.5110
vn 0.9293 0.0000 -0.3694
vn 0.9725 0.0000 -0.2330
vn 0.9940 0.0000 -0.1095
vn 1.0000 0.0000 0.0052
vn -0.9560 0.0000 -0.2932
vn -0.9855 0.0000 -0.1696
vn -0.8398 0.0000 -0.5428
vn -0.9075 0.0000 -0.4201
vn 0.8024 -0.0007 0.5968
vn 0.8954 0.0007 0.4453
vn 0.8005 0.0000 0.5993
vn -0.0133 0.0000 0.9999
vn -0.1518 0.0000 0.9884
vn -0.1540 -0.0005 0.9881
vn 0.3726 -0.0006 -0.9280
vn 0.5251 0.0006 -0.8510
vn 0.5422 -0.0029 -0.8403
vn 0.2284 0.0000 -0.9736
vn 0.3698 0.0000 -0.9291
vn 0.9230 -0.0035 -0.3848
vn 0.9611 0.0045 -0.2762
vn 0.9758 -0.0042 -0.2184
vn 0.9934 -0.0011 0.1151
vn 0.9637 0.0012 0.2670
vn 0.9624 0.0000 0.2716
vn -0.9987 0.0000 0.0513
vn -0.9868 0.0000 0.1620
vn 0.3243 0.0000 0.9460
vn 0.3890 0.0000 0.9212
vn -0.1248 0.0233 -0.9919
vn 0.0586 -0.0104 -0.9982
vn -0.1191 -0.0218 -0.9926
vn -0.3397 -0.0050 -0.9405
vn -0.2491 0.0044 -0.9685
vn -0.1155 -0.0044 -0.9933
vn -0.5905 -0.0055 -0.8071
vn -0.4866 0.0054 -0.8736
vn -0.8143 -0.0057 -0.5804
vn -0.7304 0.0057 -0.6830
vn -0.9504 -0.0053 -0.3108
vn -0.9066 0.0054 -0.4219
vn -0.9978 -0.0048 -0.0667
vn -0.9868 0.0049 -0.1618
vn -0.9863 -0.0049 0.1651
vn -0.9976 0.0048 0.0693
vn -0.9032 -0.0054 0.4291
vn -0.9484 0.0053 0.3169
vn -0.7234 -0.0057 0.6904
vn -0.8085 0.0057 0.5884
vn -0.4788 -0.0053 0.8779
vn -0.5825 0.0055 0.8128
vn -0.2441 -0.0043 0.9697
vn -0.3334 0.0049 0.9428
vn 0.0000 0.0000 -1.0000
vn -0.0468 0.0011 0.9989
vn 0.0665 -0.0017 0.9978
vn 0.0654 0.0111 0.9978
vn -0.2577 -0.0021 -0.9662
vn 0.1660 0.0011 0.9861
vn 0.3214 -0.0012 0.9470
vn 0.0054 0.0000 -1.0000
vn -0.9985 0.0000 -0.0554
vn 0.9917 0.0000 0.1288
vn 0.8471 -0.0039 -0.5314
vn 0.8880 0.0041 -0.4599
vn 0.6679 0.0023 -0.7442
vn 0.7220 -0.0045 -0.6919
vn 0.8990 -0.0007 0.4379
vn 0.9619 0.0007 0.2733
vn 0.9124 -0.0003 0.4092
vn 0.8292 -0.0001 0.5590
vn 0.8292 -0.0008 0.5590
vn -0.2349 0.0000 -0.9720
vn -0.3680 0.0005 -0.9298
vn -0.1107 -0.0007 -0.9939
vn -0.1130 0.0000 -0.9936
vn 0.9951 0.0047 -0.0983
vn 0.9988 -0.0034 -0.0484
vn 0.2197 0.0031 -0.9756
vn 0.0858 -0.0026 -0.9963
vn 0.0798 -0.0120 -0.9967
vn 0.1977 -0.0031 0.9803
vn 0.4834 0.0000 0.8754
vn 0.5974 0.0000 0.8019
vn -0.9108 0.0005 0.4129
vn -0.8279 0.0002 0.5609
vn -0.8279 0.0012 0.5609
vn -0.5193 0.0003 -0.8546
vn -0.5193 0.0013 -0.8546
vn 0.3534 0.0019 0.9355
vn 0.2365 -0.0017 0.9716
vn 0.3638 0.0000 0.9315
vn -0.7564 0.0000 -0.6542
vn 0.9628 0.0000 0.2703
vn -0.6564 0.0000 -0.7544
vn -0.6553 0.0005 -0.7554
vn 0.1773 0.0039 0.9842
vn 0.1116 -0.0016 0.9938
vn -0.1641 0.0000 0.9864
vn -0.0497 0.0000 0.9988
vn 0.3655 0.0000 0.9308
vn 0.6109 0.0000 0.7917
vn 0.4917 0.0000 0.8708
vn -0.0605 0.0002 -0.9982
vn -0.0131 -0.0017 -0.9999
vn -0.0135 -0.0025 -0.9999
vn 0.6412 -0.7674 0.0002
vn 1.0000 0.0007 -0.0008
vn -0.3125 0.0031 0.9499
vn -0.2991 -0.0013 0.9542
vn 0.9955 0.0034 0.0946
vn -0.0016 0.0050 -1.0000
vn -0.0000 0.0012 -1.0000
vn 0.0301 0.0000 0.9995
vn 0.1124 0.0000 0.9937
vn 0.2259 0.0006 -0.9741
vn 0.7026 0.0000 0.7116
vn 0.7816 0.0038 -0.6238
vn 0.7209 -0.0003 0.6931
vn -0.9594 0.0000 0.2820
vn 0.2503 0.0000 0.9682
vn 0.9131 0.0000 0.4077
vn 0.2462 0.0156 -0.9691
vn 0.2489 -0.0175 -0.9684
vn -0.7149 0.0009 0.6992
vn -0.5754 0.0002 0.8179
vn -0.5754 0.0012 0.8179
vn -0.4222 0.0005 0.9065
vn -0.4208 0.0000 0.9072
vn -0.2871 0.0000 0.9579
vn -0.0025 0.0020 1.0000
vn -0.4655 -0.0023 -0.8850
vn -0.3908 -0.0019 -0.9205
vn -0.4570 0.0000 -0.8895
vn -0.2937 0.0038 -0.9559
vn -0.0128 0.0016 0.9999
vn 0.0488 0.0016 -0.9988
vn -0.3667 0.0000 -0.9303
vn -0.9114 0.0000 0.4115
vn -0.4208 0.0009 -0.9071
vn 0.7197 0.0000 0.6942
vn 0.2553 -0.0027 -0.9669
vn -0.7149 0.0000 0.6992
f 44//1 152//1 53//1
f 140//1 49//1 134//1
f 34//1 36//1 35//1
f 101//2 141//2 131//2
f 89//2 154//2 88//2
f 179//3 20//4 21//5
f 38//6 91//6 37//6
f 39//7 92//7 38//7
f 40//8 104//8 39//8
f 135//9 100//10 153//11
f 108//12 93//13 106//13
f 109//14 107//12 108//12
f 41//15 94//14 109//14
f 42//16 110//15 41//15
f 43//17 111//16 42//16
f 113//18 95//17 43//17
f 114//19 112//18 113//18
f 44//20 96//19 114//19
f 116//21 97//20 44//20
f 45//22 115//21 116//21
f 118//23 98//22 45//22
f 170//24 10//25 11//24
f 12//26 65//27 171//27
f 124//28 123//29 125//30
f 183//31 74//32 181//33
f 28//34 81//35 201//36
f 65//27 11//24 171//27
f 29//37 82//38 28//34
f 198//39 78//40 26//41
f 196//42 76//43 25//44
f 62//45 168//46 9//45
f 2//47 157//48 1//48
f 138//6 100//6 136//6
f 85//49 202//50 30//51
f 140//52 101//53 49//54
f 142//55 141//56 140//52
f 50//57 102//58 142//55
f 144//59 143//60 50//57
f 51//61 103//62 144//59
f 52//63 145//64 51//61
f 147//65 146//66 52//63
f 149//67 148//68 147//65
f 53//69 150//70 149//67
f 152//71 151//72 53//69
f 135//9 153//11 152//71
f 34//6 154//6 33//6
f 35//7 88//7 34//7
f 36//8 89//8 35//8
f 33//73 90//73 36//73
f 1//6 155//6 156//6
f 161//74 160//75 159//76
f 31//77 85//49 30//51
f 3//78 54//79 2//47
f 106//13 105//80 40//80
f 169//81 62//45 9//45
f 10//25 63//81 169//81
f 120//82 117//23 118//23
f 199//83 79//84 198//39
f 201//36 200//85 27//86
f 122//87 46//88 123//29
f 194//89 75//90 24//91
f 69//92 16//93 174//92
f 175//94 174//92 17//95
f 77//96 197//97 26//41
f 19//98 177//99 18//100
f 159//76 160//75 158//101
f 129//102 127//103 48//103
f 7//104 58//105 167//106
f 16//93 172//107 15//108
f 187//109 186//110 22//111
f 67//112 12//26 13//112
f 121//113 120//82 46//88
f 68//114 13//112 14//115
f 186//110 184//116 185//117
f 4//118 55//119 161//74
f 130//120 128//102 129//102
f 189//121 23//122 190//121
f 139//123 137//124 138//125
f 20//4 72//126 178//127
f 73//128 21//5 180//129
f 197//97 195//130 196//42
f 70//131 176//132 18//100
f 37//133 133//134 134//134
f 176//132 175//94 17//95
f 202//50 83//135 29//37
f 48//103 126//136 47//136
f 80//137 199//83 27//86
f 75//90 192//138 24//91
f 172//107 14//115 15//108
f 47//136 124//28 125//30
f 23//122 187//109 22//111
f 60//139 7//104 8//139
f 168//46 60//139 8//139
f 134//134 131//140 132//140
f 132//140 99//120 130//120
f 25//44 193//141 194//89
f 192//138 189//121 190//121
f 71//142 19//98 178//143
f 58//105 6//144 167//106
f 6//144 165//145 166//146
f 165//145 5//147 166//146
f 56//148 164//149 5//147
f 164//149 162//118 4//118
f 185//117 182//150 183//31
f 155//151 32//152 156//153
f 181//33 73//128 180//129
f 86//154 31//77 32//152
f 44//1 135//1 152//1
f 149//1 116//1 44//1
f 53//1 149//1 44//1
f 134//1 132//1 140//1
f 132//1 130//1 142//1
f 130//1 129//1 142//1
f 129//1 48//1 50//1
f 48//1 47//1 50//1
f 47//1 125//1 50//1
f 125//1 123//1 144//1
f 125//1 144//1 50//1
f 123//1 46//1 144//1
f 46//1 120//1 51//1
f 120//1 118//1 51//1
f 118//1 45//1 52//1
f 45//1 116//1 52//1
f 116//1 149//1 147//1
f 46//1 51//1 144//1
f 129//1 50//1 142//1
f 132//1 142//1 140//1
f 39//1 38//1 37//1
f 37//1 134//1 49//1
f 116//1 147//1 52//1
f 40//1 39//1 138//1
f 39//1 37//1 138//1
f 108//1 106//1 135//1
f 106//1 40//1 136//1
f 41//1 109//1 135//1
f 109//1 108//1 135//1
f 43//1 42//1 135//1
f 42//1 41//1 135//1
f 114//1 113//1 135//1
f 113//1 43//1 135//1
f 135//1 44//1 114//1
f 136//1 135//1 106//1
f 52//1 51//1 118//1
f 138//1 136//1 40//1
f 49//1 138//1 37//1
f 21//1 20//1 178//1
f 178//1 19//1 180//1
f 19//1 18//1 181//1
f 181//1 18//1 183//1
f 18//1 176//1 183//1
f 176//1 17//1 185//1
f 183//1 176//1 185//1
f 17//1 174//1 186//1
f 174//1 16//1 22//1
f 17//1 186//1 185//1
f 16//1 15//1 23//1
f 15//1 14//1 192//1
f 14//1 13//1 192//1
f 13//1 12//1 24//1
f 12//1 171//1 194//1
f 194//1 171//1 25//1
f 171//1 11//1 25//1
f 11//1 10//1 196//1
f 25//1 11//1 196//1
f 10//1 169//1 196//1
f 169//1 9//1 197//1
f 9//1 168//1 26//1
f 168//1 8//1 26//1
f 9//1 26//1 197//1
f 8//1 7//1 198//1
f 7//1 167//1 198//1
f 8//1 198//1 26//1
f 167//1 6//1 27//1
f 199//1 167//1 27//1
f 6//1 166//1 27//1
f 201//1 166//1 5//1
f 5//1 164//1 201//1
f 201//1 164//1 28//1
f 164//1 4//1 28//1
f 4//1 161//1 29//1
f 29//1 161//1 202//1
f 161//1 159//1 202//1
f 159//1 3//1 30//1
f 3//1 2//1 31//1
f 2//1 1//1 32//1
f 1//1 156//1 32//1
f 2//1 32//1 31//1
f 166//1 201//1 27//1
f 15//1 190//1 23//1
f 13//1 24//1 192//1
f 21//1 178//1 180//1
f 180//1 19//1 181//1
f 196//1 169//1 197//1
f 159//1 30//1 202//1
f 3//1 31//1 30//1
f 12//1 194//1 24//1
f 186//1 174//1 22//1
f 4//1 29//1 28//1
f 23//1 22//1 16//1
f 192//1 190//1 15//1
f 199//1 198//1 167//1
f 34//1 33//1 36//1
f 55//2 162//2 83//2
f 162//2 163//2 82//2
f 82//2 163//2 81//2
f 163//2 56//2 81//2
f 56//2 165//2 81//2
f 165//2 57//2 80//2
f 57//2 58//2 80//2
f 80//2 58//2 79//2
f 58//2 59//2 79//2
f 59//2 60//2 79//2
f 60//2 61//2 78//2
f 61//2 62//2 77//2
f 60//2 78//2 79//2
f 62//2 63//2 77//2
f 63//2 64//2 195//2
f 76//2 65//2 193//2
f 64//2 170//2 195//2
f 170//2 65//2 76//2
f 193//2 66//2 75//2
f 65//2 66//2 193//2
f 66//2 67//2 75//2
f 75//2 67//2 191//2
f 67//2 68//2 191//2
f 68//2 172//2 191//2
f 172//2 173//2 188//2
f 189//2 172//2 188//2
f 173//2 69//2 187//2
f 69//2 175//2 184//2
f 173//2 187//2 188//2
f 175//2 70//2 184//2
f 70//2 177//2 182//2
f 182//2 177//2 74//2
f 177//2 71//2 74//2
f 71//2 72//126 73//2
f 72//126 179//3 73//2
f 172//2 189//2 191//2
f 165//2 80//2 200//2
f 81//2 165//2 200//2
f 158//2 160//2 85//2
f 160//2 55//2 84//2
f 84//2 55//2 83//2
f 157//2 54//2 86//2
f 54//2 158//2 86//2
f 87//2 155//2 157//2
f 86//2 87//2 157//2
f 184//2 70//2 182//2
f 71//2 73//2 74//2
f 162//2 82//2 83//2
f 86//2 158//2 85//2
f 84//2 85//2 160//2
f 184//2 187//2 69//2
f 170//2 76//2 195//2
f 78//2 61//2 77//2
f 63//2 195//2 77//2
f 102//2 143//2 126//2
f 143//2 121//2 122//2
f 122//2 124//2 143//2
f 124//2 126//2 143//2
f 126//2 127//2 102//2
f 127//2 128//2 102//2
f 128//2 99//2 102//2
f 99//2 131//2 141//2
f 102//2 99//2 141//2
f 131//2 133//2 101//2
f 133//2 91//2 139//2
f 139//2 101//2 133//2
f 89//2 90//2 154//2
f 91//2 92//2 104//2
f 105//2 93//2 100//2
f 93//2 107//2 151//2
f 107//2 94//2 150//2
f 94//2 110//2 150//2
f 110//2 111//2 148//2
f 111//2 95//2 148//2
f 95//2 112//2 148//2
f 112//2 96//2 148//2
f 146//2 96//2 97//2
f 97//2 115//2 146//2
f 146//2 115//2 98//2
f 98//2 117//2 145//2
f 117//2 119//2 145//2
f 119//2 121//2 103//2
f 145//2 119//2 103//2
f 121//2 143//2 103//2
f 96//2 146//2 148//2
f 146//2 98//2 145//2
f 151//2 107//2 150//2
f 150//2 110//2 148//2
f 91//2 104//2 137//2
f 104//2 105//2 137//2
f 137//2 139//2 91//2
f 100//2 137//2 105//2
f 93//2 153//2 100//2
f 153//2 93//2 151//2
f 38//6 92//6 91//6
f 39//7 104//7 92//7
f 40//8 105//8 104//8
f 135//9 136//155 100//10
f 108//12 107//12 93//13
f 109//14 94//14 107//12
f 41//15 110//15 94//14
f 42//16 111//16 110//15
f 43//17 95//17 111//16
f 113//18 112//18 95//17
f 114//19 96//19 112//18
f 44//20 97//20 96//19
f 116//21 115//21 97//20
f 45//22 98//22 115//21
f 118//23 117//23 98//22
f 170//24 64//25 10//25
f 12//26 66//26 65//27
f 124//28 122//87 123//29
f 183//31 182//150 74//32
f 28//34 82//38 81//35
f 65//27 170//24 11//24
f 29//37 83//135 82//38
f 198//39 79//84 78//40
f 196//42 195//130 76//43
f 62//45 61//46 168//46
f 2//47 54//79 157//48
f 138//6 137//6 100//6
f 85//49 84//156 202//50
f 49//54 101//53 139//123
f 140//52 141//56 101//53
f 142//55 102//58 141//56
f 50//57 143//60 102//58
f 144//59 103//62 143//60
f 51//61 145//64 103//62
f 52//63 146//66 145//64
f 147//65 148//68 146//66
f 149//67 150//70 148//68
f 53//69 151//72 150//70
f 152//71 153//11 151//72
f 34//6 88//6 154//6
f 35//7 89//7 88//7
f 36//8 90//8 89//8
f 33//73 154//73 90//73
f 1//6 157//6 155//6
f 161//74 55//119 160//75
f 31//77 86//154 85//49
f 3//78 158//101 54//79
f 106//13 93//13 105//80
f 78//40 77//96 26//41
f 169//81 63//81 62//45
f 10//25 64//25 63//81
f 120//82 119//82 117//23
f 201//36 81//35 200//85
f 122//87 121//113 46//88
f 194//89 193//141 75//90
f 27//86 200//85 80//137
f 69//92 173//157 16//93
f 175//94 69//92 174//92
f 19//98 71//142 177//99
f 3//78 159//76 158//101
f 129//102 128//102 127//103
f 7//104 59//158 58//105
f 16//93 173//157 172//107
f 187//109 184//116 186//110
f 67//112 66//26 12//26
f 121//113 119//82 120//82
f 68//114 67//112 13//112
f 4//118 162//118 55//119
f 130//120 99//120 128//102
f 189//121 188//122 23//122
f 138//125 49//54 139//123
f 20//4 179//3 72//126
f 73//128 179//3 21//5
f 197//97 77//96 195//130
f 70//131 18//100 177//99
f 87//159 86//154 32//152
f 37//133 91//133 133//134
f 176//132 70//131 175//94
f 202//50 84//156 83//135
f 48//103 127//103 126//136
f 80//137 79//84 199//83
f 75//90 191//160 192//138
f 172//107 68//114 14//115
f 47//136 126//136 124//28
f 23//122 188//122 187//109
f 60//139 59//158 7//104
f 168//46 61//46 60//139
f 134//134 133//134 131//140
f 132//140 131//140 99//120
f 25//44 76//43 193//141
f 192//138 191//160 189//121
f 178//143 72//161 71//142
f 58//105 57//162 6//144
f 6//144 57//162 165//145
f 165//145 56//148 5//147
f 56//148 163//149 164//149
f 164//149 163//149 162//118
f 185//117 184//116 182//150
f 155//151 87//159 32//152
f 181//33 74//32 73//128
